<svg width="24" height="24" viewBox="0 0 24 24" fill="none" xmlns="http://www.w3.org/2000/svg">
  <!-- Sun Core -->
  <circle cx="12" cy="12" r="4.8" fill="#FF8C00" />
  <!-- Subtle Inner Ring -->
  <circle cx="12" cy="12" r="3" fill="none" stroke="black" stroke-opacity="0.2" stroke-width="0.5" />
  <!-- 12 Thin Rays -->
  <rect x="11.6" y="1" width="0.8" height="4.5" rx="0.4" fill="#FF8C00" transform="rotate(0 12 12)" />
  <rect x="11.6" y="1" width="0.8" height="4.5" rx="0.4" fill="#FF8C00" transform="rotate(30 12 12)" />
  <rect x="11.6" y="1" width="0.8" height="4.5" rx="0.4" fill="#FF8C00" transform="rotate(60 12 12)" />
  <rect x="11.6" y="1" width="0.8" height="4.5" rx="0.4" fill="#FF8C00" transform="rotate(90 12 12)" />
  <rect x="11.6" y="1" width="0.8" height="4.5" rx="0.4" fill="#FF8C00" transform="rotate(120 12 12)" />
  <rect x="11.6" y="1" width="0.8" height="4.5" rx="0.4" fill="#FF8C00" transform="rotate(150 12 12)" />
  <rect x="11.6" y="1" width="0.8" height="4.5" rx="0.4" fill="#FF8C00" transform="rotate(180 12 12)" />
  <rect x="11.6" y="1" width="0.8" height="4.5" rx="0.4" fill="#FF8C00" transform="rotate(210 12 12)" />
  <rect x="11.6" y="1" width="0.8" height="4.5" rx="0.4" fill="#FF8C00" transform="rotate(240 12 12)" />
  <rect x="11.6" y="1" width="0.8" height="4.5" rx="0.4" fill="#FF8C00" transform="rotate(270 12 12)" />
  <rect x="11.6" y="1" width="0.8" height="4.5" rx="0.4" fill="#FF8C00" transform="rotate(300 12 12)" />
  <rect x="11.6" y="1" width="0.8" height="4.5" rx="0.4" fill="#FF8C00" transform="rotate(330 12 12)" />
</svg>
